<?xml version="1.0" standalone="no"?>
<!DOCTYPE svg PUBLIC "-//W3C//DTD SVG 20010904//EN"
 "http://www.w3.org/TR/2001/REC-SVG-20010904/DTD/svg10.dtd">
<svg version="1.0" xmlns="http://www.w3.org/2000/svg"
 width="400.000000pt" height="400.000000pt" viewBox="0 0 400.000000 400.000000"
 preserveAspectRatio="xMidYMid meet">
<metadata>
Created by potrace 1.16, written by Peter Selinger 2001-2019
</metadata>
<g transform="translate(0.000000,400.000000) scale(0.100000,-0.100000)"
fill="#000000" stroke="none">
<path d="M1522 3380 c-18 -11 -36 -30 -41 -41 -5 -16 -27 -27 -83 -44 -204
-58 -355 -221 -388 -417 -8 -45 -11 -114 -7 -180 l6 -107 -35 -20 c-69 -41
-90 -115 -60 -215 19 -62 58 -111 107 -137 22 -11 42 -28 45 -37 18 -54 73
-148 116 -196 48 -54 49 -56 42 -104 l-6 -48 -115 -38 c-297 -98 -448 -224
-507 -426 -15 -49 -54 -273 -71 -406 -6 -46 -4 -54 16 -73 13 -11 28 -21 35
-21 10 0 12 -24 7 -105 -6 -110 1 -135 37 -135 19 0 22 14 36 147 5 49 10 63
23 62 9 0 69 -15 134 -32 l118 -32 4 -73 c3 -40 7 -77 10 -83 4 -5 283 -9 709
-9 l702 0 10 -42 c12 -55 58 -88 121 -88 60 0 107 45 117 110 4 25 9 57 12 72
l6 28 371 0 c345 0 375 2 414 20 25 11 51 33 63 52 19 32 20 49 20 665 l0 631
-26 32 c-49 57 -62 60 -299 60 l-215 0 0 27 c0 17 10 35 31 52 25 22 32 38 44
106 8 44 14 91 15 105 0 21 8 29 37 39 79 29 165 138 203 256 34 106 145 279
234 364 21 20 36 45 36 58 0 26 -34 61 -68 70 -80 20 -222 -37 -314 -126 l-58
-57 -24 50 c-50 108 -167 183 -330 211 -147 25 -326 16 -400 -22 -48 -24 -86
-64 -86 -91 0 -30 17 -62 33 -62 23 0 97 -45 136 -82 55 -54 88 -122 122 -255
40 -153 69 -212 128 -265 l49 -43 -8 -55 c-15 -97 -12 -145 10 -173 20 -25 25
-61 14 -91 -5 -14 -34 -16 -223 -16 -198 0 -219 -2 -249 -20 -64 -39 -72 -66
-72 -244 0 -146 -1 -158 -17 -151 -10 3 -75 27 -145 52 -134 49 -138 51 -138
119 0 20 9 39 26 55 38 35 101 130 123 186 12 33 27 52 47 62 37 17 92 69 110
102 24 47 35 116 25 160 -10 45 -53 97 -88 105 -22 6 -22 8 -16 114 12 213
-29 342 -148 461 -71 72 -173 129 -266 151 -38 9 -53 18 -53 29 0 25 -57 69
-88 69 -15 0 -42 -9 -60 -20z m1146 -139 c28 -6 56 -21 78 -42 50 -48 102
-160 118 -253 16 -87 27 -106 54 -90 39 25 16 164 -48 281 -22 40 -37 73 -34
73 19 0 106 -55 136 -87 51 -53 70 -103 77 -207 5 -70 10 -91 24 -100 21 -13
37 5 37 44 0 45 50 134 101 182 63 59 159 108 211 108 l40 0 -52 -57 c-76 -86
-146 -197 -180 -288 -52 -136 -72 -175 -116 -215 -52 -48 -85 -55 -222 -46
-87 6 -114 12 -142 30 -49 32 -83 100 -118 238 -51 193 -113 288 -233 357
l-53 30 37 16 c72 30 202 42 285 26z m-945 -598 c29 -8 96 -35 150 -60 59 -27
105 -42 117 -39 11 3 29 9 40 12 18 5 20 1 20 -35 0 -50 14 -59 51 -32 l29 21
20 -20 c26 -26 26 -81 0 -136 -23 -47 -53 -71 -95 -76 -24 -3 -30 -11 -49 -64
-49 -135 -136 -237 -253 -294 -57 -29 -82 -35 -154 -38 -216 -11 -383 108
-462 329 -21 57 -26 64 -56 70 -47 10 -81 48 -97 108 -14 55 -8 87 19 110 13
10 19 9 37 -9 33 -33 54 -22 58 27 3 41 3 41 34 32 39 -11 66 -4 148 36 173
85 296 102 443 58z m1681 -595 c14 -20 16 -96 16 -624 0 -593 0 -602 -21 -628
l-20 -26 -524 0 c-500 0 -524 1 -546 19 l-24 19 -3 604 c-2 601 -2 605 19 631
l20 27 534 0 534 0 15 -22z m-1975 -222 c104 -31 250 -18 362 31 l47 21 5 -47
c15 -122 -127 -261 -268 -261 -100 0 -203 64 -253 158 -27 51 -31 66 -26 105
l7 46 36 -18 c20 -10 60 -26 90 -35z"/>
<path d="M2567 1855 c-32 -41 -62 -75 -66 -75 -4 0 -17 14 -30 31 -25 33 -56
36 -75 7 -8 -13 -1 -28 36 -75 67 -85 78 -82 173 41 81 106 91 139 45 144 -21
2 -35 -10 -83 -73z"/>
<path d="M2772 1838 c-7 -7 -12 -19 -12 -28 0 -37 18 -40 261 -40 203 0 240 2
253 16 9 8 16 19 16 24 0 5 -7 16 -16 24 -13 14 -50 16 -253 16 -171 0 -240
-3 -249 -12z"/>
<path d="M2599 1543 c-19 -21 -47 -55 -63 -76 l-30 -39 -33 35 c-36 38 -67 40
-79 5 -4 -14 7 -36 39 -76 67 -86 77 -84 170 40 80 105 92 140 51 146 -14 2
-32 -10 -55 -35z"/>
<path d="M2770 1485 c-6 -8 -10 -22 -8 -32 3 -17 22 -18 254 -21 210 -2 253 0
263 12 9 11 10 20 1 35 -10 20 -18 21 -254 21 -201 0 -246 -3 -256 -15z"/>
<path d="M2566 1155 c-33 -41 -62 -75 -64 -75 -3 0 -17 14 -32 31 -20 25 -31
30 -48 25 -33 -11 -27 -42 19 -103 60 -77 71 -74 163 49 81 109 91 141 46 146
-21 2 -35 -10 -84 -73z"/>
<path d="M2764 1136 c-3 -8 -4 -23 -2 -33 3 -17 21 -18 254 -21 210 -2 253 0
263 12 9 11 10 20 1 35 -10 20 -18 21 -261 21 -208 0 -251 -2 -255 -14z"/>
<path d="M315 1995 c0 -577 1 -812 2 -522 2 291 2 763 0 1050 -1 287 -2 50 -2
-528z"/>
<path d="M3685 2000 c0 -575 1 -810 2 -522 2 287 2 757 0 1045 -1 287 -2 52
-2 -523z"/>
<path d="M1492 313 c274 -2 722 -2 995 0 274 1 50 2 -497 2 -547 0 -771 -1
-498 -2z"/>
</g>
</svg>
